<?xml version="1.0" encoding="utf-8"?>
<svg xmlns="http://www.w3.org/2000/svg" viewBox="0 0 100 100" width="500" height="500">
  <circle cx="77" cy="13" r="1" fill="#f1bc19" />
  <circle cx="50" cy="50" r="37" fill="#e6edb7" />
  <circle cx="83" cy="15" r="4" fill="#f1bc19" />
  <circle cx="87" cy="24" r="2" fill="#9f8066" />
  <circle cx="81" cy="76" r="2" fill="#fbcd59" />
  <circle cx="15" cy="63" r="4" fill="#fbcd59" />
  <circle cx="25" cy="87" r="2" fill="#9f8066" />
  <circle cx="19.5" cy="43.5" r="2.5" fill="#fff" />
  <circle cx="79.5" cy="33.5" r="1.5" fill="#fff" />
  <rect width="26" height="45" x="37.5" y="25.5" fill="#fff" />
  <rect width="41.6" height="3.6" x="29.7" y="70.7" fill="#ef9922" />
  <path fill="#472b29" d="M70.6,71.4v2.2H30.4v-2.2H70.6 M72,70H29v5h43V70L72,70z" />
  <path fill="#472b29" d="M51.5,53h-21c-2.167,0-4.5-1.095-4.5-3.5c0-1.888,1.339-2.748,2.583-2.748 c1.192,0,1.919,0.883,2.021,1.755c0.091,0.777-0.309,1.677-1.406,1.938c-0.271,0.062-0.539-0.103-0.602-0.371 c-0.064-0.269,0.102-0.538,0.371-0.602c0.653-0.155,0.667-0.645,0.644-0.849c-0.049-0.42-0.392-0.871-1.028-0.871 c-0.73,0-1.583,0.458-1.583,1.748c0,1.718,1.814,2.5,3.5,2.5h21c0.276,0,0.5,0.224,0.5,0.5S51.776,53,51.5,53z" />
  <path fill="#472b29" d="M70.5,53h-21c-0.276,0-0.5-0.224-0.5-0.5s0.224-0.5,0.5-0.5h21c1.686,0,3.5-0.782,3.5-2.5 c0-1.291-0.853-1.748-1.583-1.748c-0.636,0-0.979,0.452-1.028,0.871c-0.024,0.204-0.009,0.694,0.644,0.849 c0.269,0.064,0.435,0.333,0.371,0.602c-0.063,0.269-0.332,0.434-0.602,0.371c-1.097-0.261-1.497-1.161-1.406-1.938 c0.103-0.872,0.83-1.755,2.021-1.755c1.244,0,2.583,0.86,2.583,2.748C75,51.905,72.667,53,70.5,53z" />
  <path fill="#472b29" d="M50.5,71c-0.276,0-0.5-0.224-0.5-0.5v-18c0-0.276,0.224-0.5,0.5-0.5s0.5,0.224,0.5,0.5v18 C51,70.776,50.776,71,50.5,71z" />
  <path fill="#472b29" d="M30.5,71c-0.115,0-0.231-0.04-0.325-0.12c-4.936-4.231-3.289-8.465-1.696-12.561 C29.261,56.307,30,54.406,30,52.5c0-0.276,0.224-0.5,0.5-0.5s0.5,0.224,0.5,0.5c0,2.094-0.808,4.172-1.589,6.181 c-1.534,3.944-2.983,7.67,1.415,11.439c0.21,0.18,0.234,0.495,0.054,0.705C30.781,70.941,30.641,71,30.5,71z" />
  <path fill="#472b29" d="M36,71c-0.152,0-0.302-0.069-0.4-0.2c-3.141-4.19-2.096-8.375-1.084-12.421 c0.484-1.937,0.984-3.94,0.984-5.879c0-0.276,0.224-0.5,0.5-0.5s0.5,0.224,0.5,0.5c0,2.062-0.516,4.125-1.014,6.121 c-0.999,3.996-1.941,7.769,0.914,11.579c0.166,0.221,0.121,0.534-0.1,0.7C36.209,70.968,36.104,71,36,71z" />
  <path fill="#472b29" d="M43,71c-0.203,0-0.393-0.124-0.468-0.325c-1.542-4.115-1.026-8.244-0.527-12.238 c0.244-1.951,0.496-3.969,0.496-5.938c0-0.276,0.224-0.5,0.5-0.5s0.5,0.224,0.5,0.5c0,2.031-0.256,4.08-0.503,6.062 c-0.506,4.051-0.984,7.878,0.472,11.762c0.097,0.259-0.034,0.547-0.293,0.644C43.118,70.99,43.059,71,43,71z" />
  <g>
    <path fill="#472b29" d="M58.001,71c-0.059,0-0.118-0.01-0.175-0.032c-0.259-0.097-0.39-0.385-0.293-0.644 c1.456-3.885,0.978-7.711,0.472-11.762c-0.248-1.982-0.503-4.031-0.503-6.062c0-0.276,0.224-0.5,0.5-0.5s0.5,0.224,0.5,0.5 c0,1.969,0.252,3.987,0.496,5.938c0.499,3.993,1.015,8.122-0.527,12.238C58.394,70.876,58.204,71,58.001,71z" />
  </g>
  <g>
    <path fill="#472b29" d="M65,71c-0.104,0-0.209-0.032-0.299-0.1c-0.221-0.166-0.266-0.479-0.1-0.7 c2.855-3.81,1.913-7.583,0.914-11.579c-0.499-1.996-1.014-4.06-1.014-6.121c0-0.276,0.224-0.5,0.5-0.5s0.5,0.224,0.5,0.5 c0,1.938,0.5,3.942,0.984,5.879c1.011,4.046,2.057,8.231-1.084,12.421C65.302,70.931,65.152,71,65,71z" />
  </g>
  <g>
    <path fill="#472b29" d="M70.389,71c-0.141,0-0.281-0.059-0.379-0.175c-0.18-0.21-0.156-0.525,0.054-0.705 c4.397-3.769,2.949-7.495,1.415-11.439c-0.781-2.01-1.589-4.087-1.589-6.181c0-0.276,0.224-0.5,0.5-0.5s0.5,0.224,0.5,0.5 c0,1.906,0.739,3.807,1.521,5.819c1.593,4.095,3.24,8.33-1.696,12.561C70.62,70.96,70.504,71,70.389,71z" />
  </g>
  <g>
    <rect width="9" height="21.5" x="40.5" y="28.5" fill="#77cbd2" />
    <rect width="9" height="21.5" x="51.5" y="28.5" fill="#77cbd2" />
  </g>
  <g>
    <path fill="#472b29" d="M63.5,70.75h-26c-0.138,0-0.25-0.112-0.25-0.25V54.688c0-0.138,0.112-0.25,0.25-0.25 s0.25,0.112,0.25,0.25V70.25h25.5V55c0-0.138,0.112-0.25,0.25-0.25s0.25,0.112,0.25,0.25v15.5 C63.75,70.638,63.638,70.75,63.5,70.75z" />
  </g>
  <g>
    <path fill="#472b29" d="M63.5,50.563c-0.276,0-0.5-0.224-0.5-0.5V32.438c0-0.276,0.224-0.5,0.5-0.5s0.5,0.224,0.5,0.5 v17.625C64,50.339,63.776,50.563,63.5,50.563z" />
  </g>
  <g>
    <path fill="#472b29" d="M37.5,39.5c-0.276,0-0.5-0.224-0.5-0.5V25.5c0-0.276,0.224-0.5,0.5-0.5h26 c0.276,0,0.5,0.224,0.5,0.5v3.813c0,0.276-0.224,0.5-0.5,0.5s-0.5-0.224-0.5-0.5V26H38v13C38,39.276,37.776,39.5,37.5,39.5z" />
  </g>
  <g>
    <path fill="#472b29" d="M37.5,50.5c-0.276,0-0.5-0.224-0.5-0.5v-8.25c0-0.276,0.224-0.5,0.5-0.5s0.5,0.224,0.5,0.5V50 C38,50.276,37.776,50.5,37.5,50.5z" />
  </g>
  <g>
    <path fill="#472b29" d="M49.5,42.906c-0.138,0-0.25-0.112-0.25-0.25V28.75h-8.5v2.75c0,0.138-0.112,0.25-0.25,0.25 s-0.25-0.112-0.25-0.25v-3c0-0.138,0.112-0.25,0.25-0.25h9c0.138,0,0.25,0.112,0.25,0.25v14.156 C49.75,42.794,49.638,42.906,49.5,42.906z" />
    <path fill="#472b29" d="M49.5,50.25h-9c-0.138,0-0.25-0.112-0.25-0.25v-9.813c0-0.138,0.112-0.25,0.25-0.25 s0.25,0.112,0.25,0.25v9.563h8.5v-5.031c0-0.138,0.112-0.25,0.25-0.25s0.25,0.112,0.25,0.25V50 C49.75,50.138,49.638,50.25,49.5,50.25z" />
    <path fill="#472b29" d="M40.5,38.438c-0.138,0-0.25-0.112-0.25-0.25v-4.531c0-0.138,0.112-0.25,0.25-0.25 s0.25,0.112,0.25,0.25v4.531C40.75,38.326,40.638,38.438,40.5,38.438z" />
    <path fill="#472b29" d="M60.5,42.031c-0.138,0-0.25-0.112-0.25-0.25V28.75h-8.5v4.781c0,0.138-0.112,0.25-0.25,0.25 s-0.25-0.112-0.25-0.25V28.5c0-0.138,0.112-0.25,0.25-0.25h9c0.138,0,0.25,0.112,0.25,0.25v13.281 C60.75,41.919,60.638,42.031,60.5,42.031z" />
    <path fill="#472b29" d="M60.5,50.25h-9c-0.138,0-0.25-0.112-0.25-0.25V34.688c0-0.138,0.112-0.25,0.25-0.25 s0.25,0.112,0.25,0.25V49.75h8.5v-5.813c0-0.138,0.112-0.25,0.25-0.25s0.25,0.112,0.25,0.25V50 C60.75,50.138,60.638,50.25,60.5,50.25z" />
  </g>
</svg>