<?xml version="1.0" encoding="utf-8"?>
<svg xmlns="http://www.w3.org/2000/svg" xmlns:xlink="http://www.w3.org/1999/xlink" viewBox="0 0 100 100" width="500" height="500">
  <path fill="#fff" d="M19.8 55.1A.9.9 0 1 0 19.8 56.9.9.9 0 1 0 19.8 55.1zM78.8 30.400000000000002A.7.7 0 1 0 78.8 31.8.7.7 0 1 0 78.8 30.400000000000002z" />
  <path fill="#f1bc19" d="M76.2 11.2A.9.9 0 1 0 76.2 13 .9.9 0 1 0 76.2 11.2zM20.3 62.800000000000004A.9.9 0 1 0 20.3 64.60000000000001.9.9 0 1 0 20.3 62.800000000000004z" />
  <path fill="#fce0a2" d="M49.1 11.799999999999997A37.5 37.5 0 1 0 49.1 86.8A37.5 37.5 0 1 0 49.1 11.799999999999997Z" />
  <path fill="#f1bc19" d="M81.7 10.2A4 4 0 1 0 81.7 18.2A4 4 0 1 0 81.7 10.2Z" />
  <path fill="#ee3e54" d="M85.7 21.400000000000002A1.9 1.9 0 1 0 85.7 25.2A1.9 1.9 0 1 0 85.7 21.400000000000002Z" />
  <path fill="#fbcd59" d="M76.7 73.8A1.9 1.9 0 1 0 76.7 77.60000000000001 1.9 1.9 0 1 0 76.7 73.8zM13.5 58.8A4 4 0 1 0 13.5 66.8 4 4 0 1 0 13.5 58.8z" />
  <path fill="#ee3e54" d="M23.7 85A1.9 1.9 0 1 0 23.7 88.80000000000001A1.9 1.9 0 1 0 23.7 85Z" />
  <path fill="#fff" d="M75.3 27.8A1.8 1.8 0 1 0 75.3 31.400000000000002 1.8 1.8 0 1 0 75.3 27.8zM17.2 48.2A2.5 2.5 0 1 0 17.2 53.2 2.5 2.5 0 1 0 17.2 48.2z" />
  <path fill="#ce9065" d="M67.7,70.5c-0.4-2.2-1.3-3.4-3.3-4c-0.1,0-0.2-0.1-0.3-0.1l-0.6-0.2c-1.3-0.5-8.7-3.3-8.7-3.3 c-0.6-0.2-1-0.6-1.2-1.1c-0.2-0.9-0.3-1.9-0.2-2.9c-1.6,0.6-3.3,1-5,1.4c-1.9,0.2-6-2.3-6-2.3s-0.1,3-0.2,3.7 c-0.2,0.6-0.7,1-1.3,1.1l-7.1,2.6c-0.8,0.2-1.5,0.5-2.2,0.9c-1.5,1-2.6,2.4-3.2,4.2c0,0-0.5,3.3-0.5,3.4c0,0.5-0.1,1-0.1,1.5 c7.8,5.3,14,6.7,24.7,6.3c4.9-0.2,12.1-2.6,15.9-4.5C68.1,73,67.7,70.5,67.7,70.5z" />
  <path fill="#fdfcef" d="M64.4,66.5c-0.1,0-0.2-0.1-0.3-0.1l-0.6-0.2c-0.8-0.3-3.9-1.5-6.2-2.3h-0.1 c-2.5,1.3-6.1,3.2-9.4,3.2s-6.6-1.8-9.4-3.2l-0.3,0.1l-4.4,1.6c-0.8,0.2-1.5,0.5-2.2,0.9c-1.5,1-2.6,2.4-3.2,4.2 c0,0-0.5,3.3-0.5,3.4c0,0.5-0.1,5.4-0.1,6c7.8,5.3,14,6.7,24.7,6.3c4.9-0.2,12.1-2.6,15.9-4.5c-0.2-4.2-0.6-11.2-0.6-11.2 C67.3,68.4,66.4,67.2,64.4,66.5z" />
  <path fill="#e1e0d8" d="M40.2,63.5l-3,1.1l6,7.6l5.2-5.5C48.5,66.7,40.6,65,40.2,63.5z" />
  <path fill="#e1e0d8" d="M55.8,63.5l2.6,1.5l-5.7,7.2l-5.2-5.5C47.6,66.7,55.4,65,55.8,63.5z" />
  <path fill="#ce9065" d="M60,42h-0.4c-1,0-1.2,0.3-1.2-0.3c0.1-1.1-0.1-5.4-0.1-5.6c0-4.5-4.7-8.1-10.5-8.3h-0.2 c-5.8,0.2-10.5,3.8-10.5,8.3c0,0.2-0.2,4.5-0.1,5.6c0,0.6-0.2,0.2-1.2,0.3h-0.4c-1,0-1.8,0.7-2.1,1.6c0.1,0.1,0.6,3.7,1.4,5.2 c0.4,0.8,1.1,0.9,1.8,1.4c0.3,0.2,0.5,0.6,0.6,1c0.5,1.6,1.4,3,2.7,4.1c0.6,0.6,4.5,4.7,7.9,4.5s7.3-4,7.9-4.5 c1.3-1.1,2.2-2.5,2.7-4.1c0.1-0.4,0.3-0.8,0.6-1c0.7-0.5,1.4-0.6,1.8-1.4c0.8-1.4,1.3-5.1,1.4-5.2C61.9,42.7,61,42,60,42z" />
  <path fill="#ce9065" d="M47.9,62.8c2,0,7.7-2.7,9.8-5.5c1.4-1.9,0.8-4.6,0.8-8.2c0-8.7,3.3-19.4-10.5-19.4 S37.3,40.5,37.3,49.2c0,3.6-0.6,6.2,0.8,8.2C40.3,60.1,45.8,62.8,47.9,62.8z" />
  <defs>
    <path id="hSRnK562ACduLLH300jQha" d="M1 1L2 1 1 2z" />
  </defs>
  <defs>
    <path id="hSRnK562ACduLLH300jQhc" d="M-1 -1L-2 -1 -1 -2z" />
  </defs>
  <clipPath id="hSRnK562ACduLLH300jQhb">
    <use xlink:href="#hSRnK562ACduLLH300jQha" />
  </clipPath>
  <clipPath id="hSRnK562ACduLLH300jQhd" clip-path="url(#hSRnK562ACduLLH300jQhb)">
    <use xlink:href="#hSRnK562ACduLLH300jQhc" />
  </clipPath>
  <g clip-path="url(#hSRnK562ACduLLH300jQhd)">
    <path fill="#512c2b" d="M58.3,45.2c0,0-0.4,5.5-1.9,6.5c-1.1,0.7-2.2,1.2-3.5,1.5H42.7c-1.2-0.3-2.4-0.8-3.5-1.5 c-1.5-1-1.9-6.5-1.9-6.5c-0.5,1.9-0.4,7.4-0.2,9.3c0.1,1.1,0.5,2.2,1.2,3.1c0,0,5.9,6,6.3,6.3c1.1,0.2,2.1,0.2,3.2,0.1 c1.1,0.1,2.1,0.1,3.2-0.1c0.5-0.3,6.9-6.1,6.9-6.1c0.6-1.1,0.9-2.3,1.1-3.5C59.1,51.2,58.9,48.2,58.3,45.2z" />
  </g>
  <path fill="#603535" d="M56.3,51.8c-2.1,1.1-2.3-1.1-4.6-1.7c-1.5-0.3-3,0.2-3.8,1.5c-1-1.1-2.4-1.7-3.9-1.5 c-2.3,0.6-2.5,2.8-4.6,1.7c-0.2,0,5.7,5.9,8.4,1.8C50.6,57.7,56.5,51.8,56.3,51.8L56.3,51.8z" />
  <path fill="#512c2b" d="M47.9,50c0.7,0,1.3-0.3,1.8-0.8c0,0,0.1-0.1,0-0.1c0,0,0,0,0,0l0,0c0,0-0.1,0-0.2,0c0,0,0,0,0,0 c-0.9,0.8-2.3,0.8-3.2,0c0,0-0.1,0-0.1,0h-0.1c0,0,0,0.1,0,0.2c0,0,0,0,0,0C46.6,49.8,47.2,50,47.9,50z" />
  <path fill="#603535" d="M45.7 40.8l.4-.8c-1.9-.4-3.8-.4-5.7.2L41 41C42.5 40.5 44.1 40.5 45.7 40.8zM54.9 40.8l.4-.8c-1.9-.4-3.8-.4-5.7.2l.5.8C51.7 40.5 53.3 40.5 54.9 40.8z" />
  <path fill="#512c2b" d="M43.1 42c-.5 0-.9.3-1 .7.1 0 .1 0 .2 0 .4 0 .7.3.7.7 0 .4-.3.7-.7.7-.1 0-.2 0-.3-.1.1.6.6 1.1 1.2 1.1.9-.2 1.4-1.1 1.2-2C44.1 42.6 43.6 42.2 43.1 42L43.1 42zM52.6 42c-.4 0-.7.2-.9.5.1 0 .2 0 .2 0 .4 0 .7.3.7.7 0 .4-.3.7-.7.7-.2 0-.4-.1-.5-.3.2.7.9 1.1 1.6.9.7-.2 1.1-.9.9-1.6C53.7 42.4 53.2 42 52.6 42z" />
  <path fill="#895d3d" d="M60.1 46.9l-.6-.1.2-1.8-1 .4-.2-.6 1.5-.6c.1 0 .2 0 .3 0 .1.1.1.2.1.3L60.1 46.9zM35.9 46.5l-.3-2.3c0-.1 0-.2.1-.3.1-.1.2-.1.3 0l1.5.6-.2.5-1-.4.2 1.8L35.9 46.5z" />
  <path fill="#472b29" d="M48.9,87.1c-8.9,0-14.6-1.8-21.5-6.4c-0.1-0.1-0.2-0.3-0.2-0.5c0-0.3,0.4-6.3,0.6-9.4 c0,0,0-0.1,0-0.1c0.6-1.8,1.8-3.4,3.4-4.4c0.7-0.4,1.5-0.8,2.4-1l7.1-2.6c0.5-0.1,0.8-0.4,1-0.8c0-0.1,0-0.4,0.1-0.7 c-1.5-0.9-2.8-1.9-3.9-3.3c-1.2-1.6-1.1-3.6-1-6.1l0-0.5c0-0.2-0.2-0.4-0.4-0.6c-0.2-0.1-0.4-0.3-0.6-0.4c-0.5-0.3-1-0.5-1.3-1.2 c-0.8-1.7-1.3-3.5-1.4-5.3c0-0.1,0-0.1,0-0.2c0.3-1.1,1.4-1.9,2.6-1.9H36c0.2,0,0.3,0,0.5,0c0-1.4,0-2.9,0.2-4.3l0-1.1 c0-4.7,4.8-8.6,11-8.8l0.2,0c6.2,0.2,11,4.1,11,8.8V37c0.3,1.5,0.4,3.2,0.3,4.8c0.1,0,0.3,0,0.4,0H60c1.2,0,2.2,0.8,2.6,1.9 c0,0.1,0,0.1,0,0.2c-0.2,1.9-0.6,3.7-1.4,5.3c-0.4,0.7-0.9,1-1.4,1.2c-0.2,0.1-0.4,0.2-0.6,0.4C59,50.9,59,51,58.9,51.2l0,0.7 c0.1,2.3,0.2,4.4-1,6c-1.2,1.4-2.6,2.6-4.2,3.5c0,0.2,0.1,0.4,0.2,0.5c0.2,0.4,0.5,0.7,0.9,0.8c0.3,0.1,7.5,2.8,8.7,3.3l0.9,0.4 c2.1,0.6,3.2,1.9,3.7,4.4c0,0,0,0,0,0.1c0,0,0.5,9.9,0.6,11.2c0,0.2-0.1,0.4-0.3,0.5c-4,2-11.4,4.4-16.1,4.6 C51.2,87.1,50,87.1,48.9,87.1z M28.2,80c7.4,5,13.5,6.5,24.2,6c4.5-0.2,11.4-2.4,15.4-4.3c-0.1-2.1-0.5-10.3-0.5-10.9 c-0.4-2.1-1.2-3.1-3-3.6l-1-0.4c-1.2-0.5-8.6-3.2-8.7-3.3c-0.7-0.2-1.2-0.7-1.5-1.4c-0.2-0.4-0.2-0.8-0.3-1.2 c0-0.2,0.1-0.4,0.3-0.5c1.6-0.8,3-2,4.1-3.4c0.9-1.3,0.9-3.1,0.7-5.3l0-0.8c0,0,0-0.1,0-0.1c0.1-0.4,0.3-0.7,0.7-1 c0.2-0.2,0.5-0.3,0.7-0.4c0.4-0.2,0.7-0.4,1-0.8c0.7-1.5,1.2-3.2,1.3-4.9c-0.2-0.7-0.9-1.1-1.6-1.1h-0.4c-0.3,0-0.6,0-0.9,0.1 c-0.1,0-0.3,0-0.4-0.1c-0.1-0.1-0.2-0.2-0.2-0.4c0.1-1.8,0-3.5-0.3-5.2l0-0.6c0-4.2-4.4-7.6-10-7.8l-0.2,0 c-5.6,0.2-10,3.6-10,7.8v1.1c-0.2,1.6-0.3,3.2-0.2,4.7c0,0.1-0.1,0.3-0.2,0.4s-0.3,0.1-0.4,0.1c-0.3,0-0.6-0.1-0.9-0.1h-0.4 c-0.7,0-1.3,0.5-1.6,1.1c0.2,1.7,0.6,3.3,1.3,4.9c0.2,0.4,0.5,0.6,0.9,0.8c0.2,0.1,0.5,0.3,0.7,0.4c0.4,0.3,0.7,0.8,0.7,1.4 l0,0.5c-0.1,2.3-0.2,4.1,0.8,5.4c1.1,1.3,2.4,2.3,3.8,3.2c0.2,0.1,0.3,0.3,0.3,0.4c0,0.5-0.1,0.9-0.1,1.1c0,0,0,0.1,0,0.1 c-0.3,0.8-0.9,1.3-1.7,1.5l-7,2.6c-0.8,0.2-1.5,0.5-2.1,0.9c-1.4,0.9-2.4,2.2-2.9,3.8C28.7,71.7,28.3,78.5,28.2,80z" />
  <path fill="#603535" d="M57.9,31.9c1.2,0.3,2.1,1.4,2.1,2.6c-0.1,2.2-1.6,11.7-1.6,11.7l-3.1-9.8L57.9,31.9L57.9,31.9z" />
  <path fill="#512c2b" d="M46.3,25.8l-1.2-1.6c0,0,13.1-1.5,13,5.8c0.2,5.4-3.4,10.1-8.5,11.5l0.6-2.6l-5.1,2.7l0.7-1.5 l-4.3,1.5l1.5-3.5l-3.8,1.4c-0.9,2.2-1.5,4.5-2,6.8c0,0-3-10.1-1-10.9L35.5,35l0.9-1.8L35,32.6l1.2-1.6l-0.5-0.7l2.6-1.5 l-1.3-0.7C36.9,28.1,41.3,24.5,46.3,25.8L46.3,25.8z" />
  <path fill="#ee3e54" d="M57.2,42H57h-0.2h-1.1c-0.6,0-1.3,0-2,0c-1,0-1.9,0.1-2.9,0.2h-0.3c-0.8,0.1-1.5,0.3-2.2,0.5 c-0.5,0.2-1.1,0.2-1.6,0l-0.2-0.1c-0.2-0.1-0.4-0.2-0.6-0.2l-0.5-0.1c-0.8-0.2-1.7-0.3-2.5-0.4c-0.6-0.1-1.2-0.1-1.8-0.1h-0.7 h-0.8L37.9,42c-0.4,0-0.9,0.1-1.3,0.3c-0.1,0.1-0.1,0.1-0.1,0.2c0,0.2,0.1,0.5,0.1,0.7c0,0.3,0.1,0.5,0.1,0.8s0.3,0.4,0.8,0.6 l0.3,0.2c0.1,0.1,0.1,0.2,0.2,0.3v0.1l0.2,0.3c0.1,0.2,0.2,0.4,0.3,0.5c0.1,0.2,0.3,0.3,0.4,0.4c0.2,0.1,0.4,0.2,0.6,0.2 c1.5,0.3,3.1,0.4,4.7,0.3c0.8,0,1.6-0.6,1.8-1.4c0.1-0.2,0.2-0.5,0.3-0.7s0.1-0.3,0.2-0.4c0.1-0.2,0.2-0.3,0.5-0.3h0.5 c0.4,0,0.5,0,0.6,0.5l0.1,0.2c0.2,0.4,0.3,0.8,0.5,1.2c0.2,0.4,0.6,0.7,1,0.8c0.2,0.1,0.4,0.1,0.6,0.1c0.4,0,0.7,0,1.1,0 c1.1,0,2.1-0.1,3.2-0.3c0.8,0,1.5-0.5,1.8-1.3c0.1-0.2,0.3-0.5,0.5-0.6c0.1-0.1,0.3-0.1,0.4-0.2c0.4-0.2,0.6-0.3,0.7-0.4h0.1 c0.1,0,0.1-0.1,0.1-0.1c0-0.2,0-0.3,0-0.5c0-0.4,0.1-0.8,0.1-1.1S57.9,42.1,57.2,42z M51.5,42.7c0.4,0,0.8-0.1,1.2-0.1h1.3 c0.2,0,0.3,0,0.5,0c0.5,0,0.9,0.1,1.4,0.1s0.6,0.3,0.6,0.8c0,0.7-0.2,1.4-0.5,2c-0.1,0.2-0.2,0.3-0.4,0.4 c-0.6,0.3-1.2,0.5-1.9,0.5c-0.8,0-1.7,0-2.5,0.1h-0.4c-0.5,0-1-0.3-1.3-0.8c-0.4-0.6-0.5-1.3-0.5-2c0-0.2,0.1-0.4,0.4-0.5 c0.6-0.2,1.2-0.4,1.8-0.4L51.5,42.7z M46,43.9c0,0.7-0.3,1.5-0.7,2.1c-0.2,0.3-0.6,0.5-0.9,0.5c-0.5,0-1,0.1-1.4,0.1l0,0 c-0.9,0-1.9-0.1-2.8-0.3c-0.3-0.1-0.6-0.2-0.8-0.3c-0.1-0.1-0.3-0.2-0.3-0.3c-0.3-0.6-0.4-1.3-0.4-2c0-0.5,0.1-0.7,0.6-0.8 s1-0.1,1.5-0.1h0.7c1.3,0,2.6,0.2,3.9,0.5l0.3,0.1C46,43.3,46.1,43.4,46,43.9L46,43.9z" />
  <g>
    <path fill="#fdfcee" d="M69.6 57.800000000000004A14.4 14.4 0 1 0 69.6 86.60000000000001A14.4 14.4 0 1 0 69.6 57.800000000000004Z" />
    <path fill="#472b29" d="M69.6,87c-8.2,0-14.8-6.6-14.8-14.8c0-8.2,6.6-14.8,14.8-14.8S84.4,64,84.4,72.2 C84.4,80.4,77.8,87,69.6,87z M69.6,58.1c-7.8,0-14.1,6.3-14.1,14.1s6.3,14.1,14.1,14.1s14.1-6.3,14.1-14.1S77.4,58.1,69.6,58.1z" />
  </g>
  <g>
    <path fill="#88ae45" d="M69.6 60.300000000000004A11.9 11.9 0 1 0 69.6 84.10000000000001A11.9 11.9 0 1 0 69.6 60.300000000000004Z" />
    <path fill="#472b29" d="M69.6,84.4c-6.7,0-12.2-5.5-12.2-12.2c0-6.7,5.5-12.2,12.2-12.2s12.2,5.5,12.2,12.2 C81.8,78.9,76.3,84.4,69.6,84.4z M69.6,60.5c-6.4,0-11.7,5.2-11.7,11.7s5.2,11.7,11.7,11.7s11.7-5.2,11.7-11.7 S76.1,60.5,69.6,60.5z" />
  </g>
  <path fill="#b0d65f" d="M69.6,62c5.1,0,9.7,3.2,11.5,8c-1.2-6.4-7.3-10.5-13.7-9.3 c-4.7,0.9-8.5,4.6-9.3,9.3C59.9,65.2,64.5,62,69.6,62z" opacity=".79" />
  <g>
    <path fill="#f1bc19" d="M68.7 72L64.2 77 64.3 78.3 65.7 78.3 65.8 78.3 65.5 77.6 66.2 77.5 66 77.1 66.6 77 66.5 76.5 67.4 76.5 70.2 73.4" />
    <path fill="#472b29" d="M65.7,78.5h-1.5c-0.1,0-0.2-0.1-0.2-0.2l0-1.4c0,0,0-0.1,0-0.1l4.5-5c0.1-0.1,0.2-0.1,0.2,0 c0.1,0.1,0.1,0.2,0,0.2L64.4,77l0,1.1h1.1l-0.2-0.5c0-0.1,0-0.1,0-0.2c0,0,0.1-0.1,0.1-0.1l0.4,0l-0.1-0.3c0,0,0-0.1,0-0.1 c0,0,0.1-0.1,0.1-0.1l0.4,0l-0.1-0.3c0-0.1,0-0.1,0-0.2s0.1-0.1,0.1-0.1l0.8,0l2.8-3.1c0.1-0.1,0.2-0.1,0.2,0 c0.1,0.1,0.1,0.2,0,0.2l-2.8,3.1c0,0-0.1,0.1-0.1,0.1l-0.6,0l0.1,0.3c0,0,0,0.1,0,0.1s-0.1,0.1-0.1,0.1l-0.4,0l0.1,0.3 c0,0,0,0.1,0,0.1c0,0-0.1,0.1-0.1,0.1l-0.4,0l0.2,0.5c0,0.1,0,0.1,0,0.2l0,0C65.8,78.5,65.8,78.5,65.7,78.5z" />
  </g>
  <g>
    <path fill="#ee3e54" d="M74.4,68.1c-1.2-1.5-3.3-1.8-4.9-0.7c-1.5,1.2-1.8,3.3-0.7,4.9c1.1,1.5,3.3,1.8,4.8,0.7 C75.2,71.9,75.6,69.7,74.4,68.1C74.4,68.1,74.4,68.1,74.4,68.1z M73.8,71.5l-3.6-3.3c1.1-0.8,2.7-0.5,3.5,0.7 C74.2,69.6,74.3,70.7,73.8,71.5z" />
    <path fill="#472b29" d="M71.7,73.9c-1.1,0-2.2-0.5-3-1.5c-1.2-1.6-0.9-3.9,0.7-5.2c1.6-1.2,3.9-0.9,5.2,0.7c0,0,0,0,0,0 l-0.2,0.1l0.2-0.1c1.2,1.7,0.8,4-0.8,5.2C73.2,73.6,72.4,73.9,71.7,73.9z M71.7,66.9c-0.7,0-1.4,0.2-1.9,0.7 c-1.4,1.1-1.7,3.1-0.6,4.5c1.1,1.4,3.1,1.7,4.5,0.7c1.5-1.1,1.8-3.1,0.7-4.5l0.2-0.2l-0.2,0.1C73.6,67.4,72.6,66.9,71.7,66.9z M73.8,71.7c-0.1,0-0.1,0-0.2-0.1L70,68.4c-0.1,0-0.1-0.1-0.1-0.2c0-0.1,0-0.1,0.1-0.2c1.2-0.9,3-0.5,3.8,0.7 c0.6,0.9,0.6,2,0.1,2.9C74,71.7,73.9,71.7,73.8,71.7C73.8,71.7,73.8,71.7,73.8,71.7z M70.5,68.2l3.2,2.9c0.3-0.7,0.2-1.5-0.2-2.1 C72.8,68,71.6,67.7,70.5,68.2z" />
  </g>
  <path fill="#472b29" d="M64.3 78.1C64.3 78.1 64.3 78.1 64.3 78.1c-.1-.1-.1-.1-.1-.2l3-3.4c0 0 .1 0 .1 0 0 0 0 .1 0 .1L64.3 78.1C64.4 78.1 64.3 78.1 64.3 78.1zM67.7 74.4C67.6 74.4 67.6 74.4 67.7 74.4c-.1-.1-.1-.1-.1-.2l.3-.3c0 0 .1 0 .1 0 0 0 0 .1 0 .1L67.7 74.4C67.7 74.3 67.7 74.4 67.7 74.4zM68.3 73.7C68.2 73.7 68.2 73.7 68.3 73.7c-.1-.1-.1-.1-.1-.2l.1-.1c0 0 .1 0 .1 0s0 .1 0 .1L68.3 73.7C68.3 73.7 68.3 73.7 68.3 73.7zM74 69.7C74 69.7 74 69.7 74 69.7c-.4 0-.8-.2-1.1-.5-.4-.3-.6-.8-.6-1.3 0-.5.2-1 .5-1.4.7-.8 2-.9 2.7-.1.8.7.9 2 .1 2.7-.1.1-.2.2-.3.3-.1.1-.2 0-.2 0-.1-.1 0-.2 0-.2.1-.1.2-.2.3-.3.6-.7.5-1.7-.1-2.3-.7-.6-1.7-.5-2.3.1-.3.3-.4.7-.4 1.2 0 .4.2.8.5 1.1.2.2.6.4.9.4.1 0 .2.1.2.2C74.2 69.7 74.1 69.7 74 69.7z" />
</svg>