<?xml version="1.0" encoding="utf-8"?>
<svg xmlns="http://www.w3.org/2000/svg" viewBox="0 0 30 30" width="480" height="480">
  <path d="M15 2 A 1 1 0 0 0 14.421875 2.1835938L1.4941406 11.136719L1.4941406 11.138672 A 1 1 0 0 0 1 12 A 1 1 0 0 0 2 13 A 1 1 0 0 0 3 14 A 1 1 0 0 0 4 13L15 13L26 13 A 1 1 0 0 0 27 14 A 1 1 0 0 0 28 13 A 1 1 0 0 0 29 12 A 1 1 0 0 0 28.505859 11.138672L28.505859 11.136719L24 8.0175781L24 5C24 4.448 23.552 4 23 4L22 4C21.448 4 21 4.448 21 5L21 5.9394531L15.621094 2.2167969 A 1 1 0 0 0 15 2 z M 3 16 A 1 1 0 0 0 2 17 A 1 1 0 0 0 3 18 A 1 1 0 0 0 4 17 A 1 1 0 0 0 3 16 z M 27 16 A 1 1 0 0 0 26 17 A 1 1 0 0 0 27 18 A 1 1 0 0 0 28 17 A 1 1 0 0 0 27 16 z M 3 20 A 1 1 0 0 0 2 21 A 1 1 0 0 0 3 22 A 1 1 0 0 0 4 21 A 1 1 0 0 0 3 20 z M 27 20 A 1 1 0 0 0 26 21 A 1 1 0 0 0 27 22 A 1 1 0 0 0 28 21 A 1 1 0 0 0 27 20 z M 3 24 A 1 1 0 0 0 2 25 A 1 1 0 0 0 3 26 A 1 1 0 0 0 4 25 A 1 1 0 0 0 3 24 z M 27 24 A 1 1 0 0 0 26 25 A 1 1 0 0 0 27 26 A 1 1 0 0 0 28 25 A 1 1 0 0 0 27 24 z" fill="#382201" />
</svg>