<?xml version="1.0" encoding="utf-8"?>
<svg xmlns="http://www.w3.org/2000/svg" width="480" height="480" viewBox="0 0 512 512">
  <path d="M281.5,462h-12.8C273,462.2,277.2,462.2,281.5,462z" />
  <path fill="#BCBCBC" d="M382.8,387c-3.2-11-11-21-19.6-28.5c-10.4-9.1-23.1-17.2-37.2-18.4c-8.5-0.7-16.2,1.2-22.8,5.4c0.5,0.3,1.4,1.4,2.1,1.9c1.6,1.1,3.4,2,5.2,2.9c4.7,2.3,9.6,4.1,14.6,5.9c8.3,3,17.7,5.1,24.9,10.2c8.6,6.1,16.3,14.1,22.4,22.6c2.6,3.6,5.6,8.1,7.5,12.8C383.3,397.5,384.4,392.5,382.8,387z" />
  <path fill="#14B6B9" d="M358.9,388c-5.6-6.1-11.9-13-19.7-16.2c-9.3-3.8-19-6.5-28.2-10.4c-5.2-2.2-11.9-4.9-15.6-9.7c-0.7,0.7-1.4,1.4-2,2.1c-7.1,7.9-13.2,17.2-22.1,23.2c-22.9,15.3-49.2,1.7-69.3-11.7c-20.9-14-40.2-32.4-52.3-54.6c-6.1-11-10.7-22.8-12.6-35.3c-1.7-11.6-2.2-24.9,3.5-35.6c5.1-9.5,13.3-16.2,21.3-23.2c2.5-2.2,5-4.5,7.2-6.8c-2.1-6.4-2.6-13.1-4.2-19.7c-1.7-7-4.9-13.5-8.6-19.7c-7-11.9-15.8-22.9-27-31.2c-5.1-3.7-10.4-7.6-16-10.6c-3.8-2-7.8-3.6-11.5-5.8c-4.3-2.6-7.6-5.8-9.3-9.6C67.8,144,48.4,179.9,49,220.6c0.3,22,6.1,43.4,15.9,63.2c10.6,21.5,25.6,40.7,40.5,59.4c10.2,12.7,20.7,25.1,31.5,37.3c9.8,10.9,19.5,21.7,30.9,31c20.6,16.8,44.6,29.6,70.5,36c25.2,6.3,51.7,6.9,76.5-1.3c20.8-6.9,39.2-18.6,56.1-32.3c0-0.2,0.1-0.5,0.2-0.8C374,404.5,364,393.7,358.9,388z" />
  <path fill="#BCBCBC" d="M152.7,127.9c-13.1-13.8-31.7-27.5-51.2-21.5c-2.3,6.7,11.1,10.6,15.3,12.8c9.8,5.2,20,12.2,27.9,20c9.4,9.2,17.1,20.1,23.1,31.7c3,5.7,5.4,11.4,6.8,17.7c0.8,3.6,1.3,7.1,2,10.7c1.9-3.7,3.1-7.9,3.5-12.6C181.8,164.9,167,142.9,152.7,127.9z" />
  <path d="M371.1,352.1c-19.3-17.8-47.8-30-72.5-15.8c-19.6,11.2-26.8,40-53.4,37.4c-13-1.2-24.5-8.2-35.2-15c-10.7-6.8-20.6-15-29.5-23.9c-18.3-18.2-32.4-41.8-34.4-67.9c-0.9-12.2,1.5-22.5,9.8-31.6c7.7-8.4,17.6-14.5,24.8-23.4c15.4-19,9.7-44.5-1.1-64c-10.5-18.9-26-36.9-45.4-47.1c-11.1-5.9-23.9-7.8-35.9-4.1c-1.8-1.2-4.3-1.2-6.2,0.9c-17.3,20.2-32.9,42-42.6,67c-10.1,25.8-13.2,54.3-8,81.6c5.4,28.3,19.2,53.6,35.9,76.8c18.6,25.7,39.2,50,60.5,73.4c32.3,35.5,75.8,60.8,124.2,65.2c2.2,0.2,4.4,0.3,6.5,0.4h12.8c15.8-0.7,31.4-4.1,46.2-10c21.2-8.5,40-22,57.2-36.9c1.9-1.6,2.4-3.9,1.8-5.8C403.3,391.3,385.7,365.6,371.1,352.1z M101.5,106.3c19.5-6,38.1,7.7,51.2,21.5c14.3,15.1,29.2,37,27.4,58.8c-0.4,4.7-1.6,8.9-3.5,12.6c-0.7-3.6-1.2-7.1-2-10.7c-1.4-6.3-3.8-12-6.8-17.7c-6-11.7-13.8-22.5-23.1-31.7c-7.9-7.8-18.1-14.8-27.9-20C112.6,116.9,99.1,113,101.5,106.3z M371.1,413c-0.1,0.3-0.1,0.5-0.2,0.8c-16.9,13.7-35.3,25.4-56.1,32.3c-24.8,8.2-51.3,7.6-76.5,1.3c-25.9-6.4-49.9-19.2-70.5-36c-11.4-9.3-21.2-20-30.9-31c-10.8-12.1-21.4-24.6-31.5-37.3c-14.9-18.7-29.9-37.9-40.5-59.4C55.1,264,49.3,242.6,49,220.6c-0.6-40.7,18.8-76.5,43.4-107.4c1.6,3.8,4.9,7,9.3,9.6c3.7,2.2,7.7,3.8,11.5,5.8c5.6,3,10.9,6.8,16,10.6c11.2,8.2,20,19.2,27,31.2c3.7,6.2,6.9,12.7,8.6,19.7c1.6,6.6,2.1,13.3,4.2,19.7c-2.2,2.3-4.6,4.6-7.2,6.8c-8,7-16.2,13.6-21.3,23.2c-5.7,10.7-5.3,24-3.5,35.6c1.9,12.5,6.5,24.3,12.6,35.3c12.2,22.2,31.5,40.6,52.3,54.6c20.1,13.4,46.5,27,69.3,11.7c9-6,15.1-15.2,22.1-23.2c0.7-0.7,1.3-1.4,2-2.1c3.6,4.8,10.4,7.5,15.6,9.7c9.2,3.9,18.9,6.7,28.2,10.4c7.8,3.2,14.1,10.1,19.7,16.2C364,393.7,374,404.5,371.1,413z M380,401.8c-1.8-4.7-4.8-9.2-7.5-12.8c-6.2-8.5-13.9-16.5-22.4-22.6c-7.3-5.1-16.7-7.2-24.9-10.2c-4.9-1.8-9.8-3.7-14.6-5.9c-1.8-0.8-3.6-1.8-5.2-2.9c-0.6-0.4-1.6-1.6-2.1-1.9c6.7-4.1,14.3-6.1,22.8-5.4c14.1,1.2,26.8,9.4,37.2,18.4c8.6,7.4,16.4,17.5,19.6,28.5C384.4,392.5,383.3,397.5,380,401.8z" />
  <g>
    <path fill="#EF4823" d="M421,193.6c-7.3-3.6-13.1-10.3-19-15.8c-11-10.1-22-20.6-33.8-29.8c0.5,9.2,1.7,18.4,1.8,27.7c0,1.3-0.4,2.4-1.1,3.3c0,0.8-0.1,1.6-0.4,2.4c-0.7,1.9-2.2,2.7-3.7,3.9c-2,1.5-4,1.2-5.5,0c-12.9,2.4-26.1,2-39.2,3.6c-16.6,2.1-33.3,3.9-50,5c0.6,10.8,5.2,21.1,6.6,31.9c14.9-0.8,29.9-0.9,44.7-1.8c14-0.8,27.1-7.6,41.3-7c1,0,1.9,0.3,2.6,0.8c1.5-0.1,3,0.5,3.9,2.4c4.7,9.1,4.9,19,4.9,28.9c10.7-8.9,21.5-17.6,33.2-25.3c6.2-4.1,13-7.9,18.4-13.1c2.4-2.3,4.4-5.4,7.1-7.3c0.8-0.5,1.6-1.1,2.3-1.7c0,0,0.1-0.1,0.1-0.1c0-0.3,0.1-0.5,0.1-0.8C430.7,198.3,425.8,196,421,193.6z" />
    <path d="M444.5,199.1c0.4-2-0.2-4.3-2.3-5.6c-4.9-3.1-10.3-5.6-15.5-8.3c-6.9-3.5-12.4-9.7-18.1-15c-12.6-11.7-25.5-23.8-39.3-34c-2.5-1.9-5.4-1-7.1,0.8c-0.3,0.1-0.6,0.1-0.9,0.2c-3.3,1.4-4.2,3.6-4.3,7.1c-0.1,1.4,0.4,2.5,1.2,3.3c0.4,9.1,1.6,18.1,1.8,27.2c-13.8,3.2-28.3,2.4-42.4,4.1c-16.9,2.1-34,4-51,5c-1.6,0.1-2.8,0.8-3.5,1.8c-1.7,0.8-3,2.3-3.1,4.6c-0.7,14.1,6.7,27,7,41c0.1,2.8,2.8,4.8,5.4,4.6c16-1,32-2,48-2c14,0,27-7,41-7c3.3,7.4,2.9,16.4,2.7,24.6c0,0.3-0.1,0.5-0.1,0.8v3c0,1.5,0.5,2.6,1.3,3.3c-0.1,3.8,3.8,7.5,7.5,4.5c15.9-13.4,32.1-25.6,49.4-37.1c6.9-4.6,12.1-10.8,18.5-15.9c1.9-1.5,4.8-3.8,5-6.4C445.9,201.9,445.5,200.3,444.5,199.1z M435.2,201.8c0,0-0.1,0.1-0.1,0.1c-0.7,0.6-1.5,1.2-2.3,1.7c-2.7,1.8-4.7,5-7.1,7.3c-5.4,5.2-12.2,9-18.4,13.1c-11.6,7.7-22.5,16.4-33.2,25.3c0.1-9.9-0.2-19.8-4.9-28.9c-0.9-1.8-2.4-2.5-3.9-2.4c-0.7-0.5-1.6-0.8-2.6-0.8c-14.2-0.7-27.3,6.2-41.3,7c-14.9,0.9-29.8,1-44.7,1.8c-1.4-10.8-6-21.1-6.6-31.9c16.7-1.1,33.4-2.9,50-5c13.1-1.6,26.3-1.2,39.2-3.6c1.5,1.2,3.5,1.5,5.5,0c1.5-1.2,2.9-2.1,3.7-3.9c0.3-0.8,0.5-1.6,0.4-2.4c0.7-0.8,1.1-1.9,1.1-3.3c-0.1-9.2-1.3-18.4-1.8-27.7c11.8,9.3,22.9,19.7,33.8,29.8c5.9,5.5,11.7,12.2,19,15.8c4.8,2.4,9.6,4.7,14.2,7.4C435.2,201.2,435.2,201.5,435.2,201.8z" />
  </g>
</svg>