<?xml version="1.0" encoding="utf-8"?>
<svg xmlns="http://www.w3.org/2000/svg" viewBox="0 0 80 80" width="480" height="480">
  <path d="M7 17L7 23L5 23L5 63L58 63L56 61L7 61L7 25L73 25L73 43L75 43L75 23L73 23L73 17 Z M 9 19L71 19L71 23L9 23 Z M 16 27C15.449219 27 15 27.449219 15 28C15 28.550781 15.449219 29 16 29C16.550781 29 17 28.550781 17 28C17 27.449219 16.550781 27 16 27 Z M 19 27C18.449219 27 18 27.449219 18 28C18 28.550781 18.449219 29 19 29C19.550781 29 20 28.550781 20 28C20 27.449219 19.550781 27 19 27 Z M 22 27C21.449219 27 21 27.449219 21 28C21 28.550781 21.449219 29 22 29C22.550781 29 23 28.550781 23 28C23 27.449219 22.550781 27 22 27 Z M 25 27C24.449219 27 24 27.449219 24 28C24 28.550781 24.449219 29 25 29C25.550781 29 26 28.550781 26 28C26 27.449219 25.550781 27 25 27 Z M 28 27C27.449219 27 27 27.449219 27 28C27 28.550781 27.449219 29 28 29C28.550781 29 29 28.550781 29 28C29 27.449219 28.550781 27 28 27 Z M 31 27C30.449219 27 30 27.449219 30 28C30 28.550781 30.449219 29 31 29C31.550781 29 32 28.550781 32 28C32 27.449219 31.550781 27 31 27 Z M 34 27C33.449219 27 33 27.449219 33 28C33 28.550781 33.449219 29 34 29C34.550781 29 35 28.550781 35 28C35 27.449219 34.550781 27 34 27 Z M 37 27C36.449219 27 36 27.449219 36 28C36 28.550781 36.449219 29 37 29C37.550781 29 38 28.550781 38 28C38 27.449219 37.550781 27 37 27 Z M 40 27C39.449219 27 39 27.449219 39 28C39 28.550781 39.449219 29 40 29C40.550781 29 41 28.550781 41 28C41 27.449219 40.550781 27 40 27 Z M 43 27C42.449219 27 42 27.449219 42 28C42 28.550781 42.449219 29 43 29C43.550781 29 44 28.550781 44 28C44 27.449219 43.550781 27 43 27 Z M 46 27C45.449219 27 45 27.449219 45 28C45 28.550781 45.449219 29 46 29C46.550781 29 47 28.550781 47 28C47 27.449219 46.550781 27 46 27 Z M 49 27C48.449219 27 48 27.449219 48 28C48 28.550781 48.449219 29 49 29C49.550781 29 50 28.550781 50 28C50 27.449219 49.550781 27 49 27 Z M 52 27C51.449219 27 51 27.449219 51 28C51 28.550781 51.449219 29 52 29C52.550781 29 53 28.550781 53 28C53 27.449219 52.550781 27 52 27 Z M 55 27C54.449219 27 54 27.449219 54 28C54 28.550781 54.449219 29 55 29C55.550781 29 56 28.550781 56 28C56 27.449219 55.550781 27 55 27 Z M 58 27C57.449219 27 57 27.449219 57 28C57 28.550781 57.449219 29 58 29C58.550781 29 59 28.550781 59 28C59 27.449219 58.550781 27 58 27 Z M 61 27C60.449219 27 60 27.449219 60 28C60 28.550781 60.449219 29 61 29C61.550781 29 62 28.550781 62 28C62 27.449219 61.550781 27 61 27 Z M 64 27C63.449219 27 63 27.449219 63 28C63 28.550781 63.449219 29 64 29C64.550781 29 65 28.550781 65 28C65 27.449219 64.550781 27 64 27 Z M 15 30C14.449219 30 14 30.449219 14 31C14 31.550781 14.449219 32 15 32C15.550781 32 16 31.550781 16 31C16 30.449219 15.550781 30 15 30 Z M 65 30C64.449219 30 64 30.449219 64 31C64 31.550781 64.449219 32 65 32C65.550781 32 66 31.550781 66 31C66 30.449219 65.550781 30 65 30 Z M 13 32C12.449219 32 12 32.449219 12 33C12 33.550781 12.449219 34 13 34C13.550781 34 14 33.550781 14 33C14 32.449219 13.550781 32 13 32 Z M 40 32C33.9375 32 29 36.9375 29 43C29 49.0625 33.9375 54 40 54C46.0625 54 51 49.0625 51 43C51 36.9375 46.0625 32 40 32 Z M 67 32C66.449219 32 66 32.449219 66 33C66 33.550781 66.449219 34 67 34C67.550781 34 68 33.550781 68 33C68 32.449219 67.550781 32 67 32 Z M 10 33C9.449219 33 9 33.449219 9 34C9 34.550781 9.449219 35 10 35C10.550781 35 11 34.550781 11 34C11 33.449219 10.550781 33 10 33 Z M 70 33C69.449219 33 69 33.449219 69 34C69 34.550781 69.449219 35 70 35C70.550781 35 71 34.550781 71 34C71 33.449219 70.550781 33 70 33 Z M 40 34C44.980469 34 49 38.019531 49 43C49 47.980469 44.980469 52 40 52C35.019531 52 31 47.980469 31 43C31 38.019531 35.019531 34 40 34 Z M 10 36C9.449219 36 9 36.449219 9 37C9 37.550781 9.449219 38 10 38C10.550781 38 11 37.550781 11 37C11 36.449219 10.550781 36 10 36 Z M 70 36C69.449219 36 69 36.449219 69 37C69 37.550781 69.449219 38 70 38C70.550781 38 71 37.550781 71 37C71 36.449219 70.550781 36 70 36 Z M 10 39C9.449219 39 9 39.449219 9 40C9 40.550781 9.449219 41 10 41C10.550781 41 11 40.550781 11 40C11 39.449219 10.550781 39 10 39 Z M 19 39C16.800781 39 15 40.800781 15 43C15 45.199219 16.800781 47 19 47C21.199219 47 23 45.199219 23 43C23 40.800781 21.199219 39 19 39 Z M 60 39C57.800781 39 56 40.800781 56 43L58 43C58 41.882813 58.882813 41 60 41C61.117188 41 62 41.882813 62 43L64 43C64 40.800781 62.199219 39 60 39 Z M 70 39C69.449219 39 69 39.449219 69 40C69 40.550781 69.449219 41 70 41C70.550781 41 71 40.550781 71 40C71 39.449219 70.550781 39 70 39 Z M 19 41C20.117188 41 21 41.882813 21 43C21 44.117188 20.117188 45 19 45C17.882813 45 17 44.117188 17 43C17 41.882813 17.882813 41 19 41 Z M 10 42C9.449219 42 9 42.449219 9 43C9 43.550781 9.449219 44 10 44C10.550781 44 11 43.550781 11 43C11 42.449219 10.550781 42 10 42 Z M 70 42C69.449219 42 69 42.449219 69 43L71 43C71 42.449219 70.550781 42 70 42 Z M 10 45C9.449219 45 9 45.449219 9 46C9 46.550781 9.449219 47 10 47C10.550781 47 11 46.550781 11 46C11 45.449219 10.550781 45 10 45 Z M 57 45C56.640625 44.996094 56.304688 45.183594 56.121094 45.496094C55.941406 45.808594 55.941406 46.191406 56.121094 46.503906C56.304688 46.816406 56.640625 47.003906 57 47L58 47L58 54C58 57.652344 60.023438 60.757813 62.953125 62.5C60.023438 64.242188 58 67.347656 58 71L58 78L57 78C56.640625 77.996094 56.304688 78.183594 56.121094 78.496094C55.941406 78.808594 55.941406 79.191406 56.121094 79.503906C56.304688 79.816406 56.640625 80.003906 57 80L79 80C79.359375 80.003906 79.695313 79.816406 79.878906 79.503906C80.058594 79.191406 80.058594 78.808594 79.878906 78.496094C79.695313 78.183594 79.359375 77.996094 79 78L78 78L78 71C78 67.347656 75.976563 64.242188 73.046875 62.5C75.976563 60.757813 78 57.652344 78 54L78 47L79 47C79.359375 47.003906 79.695313 46.816406 79.878906 46.503906C80.058594 46.191406 80.058594 45.808594 79.878906 45.496094C79.695313 45.183594 79.359375 44.996094 79 45 Z M 60 47L76 47L76 49L60 49 Z M 10 48C9.449219 48 9 48.449219 9 49C9 49.550781 9.449219 50 10 50C10.550781 50 11 49.550781 11 49C11 48.449219 10.550781 48 10 48 Z M 10 51C9.449219 51 9 51.449219 9 52C9 52.550781 9.449219 53 10 53C10.550781 53 11 52.550781 11 52C11 51.449219 10.550781 51 10 51 Z M 60 51L76 51L76 54C76 57.492188 73.769531 60.4375 70.667969 61.535156L70 61.769531L70 63.230469L70.667969 63.464844C73.769531 64.5625 76 67.507813 76 71L76 74L60 74L60 71C60 67.507813 62.230469 64.5625 65.332031 63.464844L66 63.230469L66 61.769531L65.332031 61.535156C62.230469 60.4375 60 57.492188 60 54 Z M 13 52C12.449219 52 12 52.449219 12 53C12 53.550781 12.449219 54 13 54C13.550781 54 14 53.550781 14 53C14 52.449219 13.550781 52 13 52 Z M 15 54C14.449219 54 14 54.449219 14 55C14 55.550781 14.449219 56 15 56C15.550781 56 16 55.550781 16 55C16 54.449219 15.550781 54 15 54 Z M 16 57C15.449219 57 15 57.449219 15 58C15 58.550781 15.449219 59 16 59C16.550781 59 17 58.550781 17 58C17 57.449219 16.550781 57 16 57 Z M 19 57C18.449219 57 18 57.449219 18 58C18 58.550781 18.449219 59 19 59C19.550781 59 20 58.550781 20 58C20 57.449219 19.550781 57 19 57 Z M 22 57C21.449219 57 21 57.449219 21 58C21 58.550781 21.449219 59 22 59C22.550781 59 23 58.550781 23 58C23 57.449219 22.550781 57 22 57 Z M 25 57C24.449219 57 24 57.449219 24 58C24 58.550781 24.449219 59 25 59C25.550781 59 26 58.550781 26 58C26 57.449219 25.550781 57 25 57 Z M 28 57C27.449219 57 27 57.449219 27 58C27 58.550781 27.449219 59 28 59C28.550781 59 29 58.550781 29 58C29 57.449219 28.550781 57 28 57 Z M 31 57C30.449219 57 30 57.449219 30 58C30 58.550781 30.449219 59 31 59C31.550781 59 32 58.550781 32 58C32 57.449219 31.550781 57 31 57 Z M 34 57C33.449219 57 33 57.449219 33 58C33 58.550781 33.449219 59 34 59C34.550781 59 35 58.550781 35 58C35 57.449219 34.550781 57 34 57 Z M 37 57C36.449219 57 36 57.449219 36 58C36 58.550781 36.449219 59 37 59C37.550781 59 38 58.550781 38 58C38 57.449219 37.550781 57 37 57 Z M 40 57C39.449219 57 39 57.449219 39 58C39 58.550781 39.449219 59 40 59C40.550781 59 41 58.550781 41 58C41 57.449219 40.550781 57 40 57 Z M 43 57C42.449219 57 42 57.449219 42 58C42 58.550781 42.449219 59 43 59C43.550781 59 44 58.550781 44 58C44 57.449219 43.550781 57 43 57 Z M 46 57C45.449219 57 45 57.449219 45 58C45 58.550781 45.449219 59 46 59C46.550781 59 47 58.550781 47 58C47 57.449219 46.550781 57 46 57 Z M 49 57C48.449219 57 48 57.449219 48 58C48 58.550781 48.449219 59 49 59C49.550781 59 50 58.550781 50 58C50 57.449219 49.550781 57 49 57 Z M 52 57C51.449219 57 51 57.449219 51 58C51 58.550781 51.449219 59 52 59C52.550781 59 53 58.550781 53 58C53 57.449219 52.550781 57 52 57 Z M 55 57C54.449219 57 54 57.449219 54 58C54 58.550781 54.449219 59 55 59C55.550781 59 56 58.550781 56 58C56 57.449219 55.550781 57 55 57 Z M 66 57C65.449219 57 65 57.449219 65 58C65 58.550781 65.449219 59 66 59C66.550781 59 67 58.550781 67 58C67 57.449219 66.550781 57 66 57 Z M 70 57C69.449219 57 69 57.449219 69 58C69 58.550781 69.449219 59 70 59C70.550781 59 71 58.550781 71 58C71 57.449219 70.550781 57 70 57 Z M 68 60C67.449219 60 67 60.449219 67 61C67 61.550781 67.449219 62 68 62C68.550781 62 69 61.550781 69 61C69 60.449219 68.550781 60 68 60 Z M 66 67C65.449219 67 65 67.449219 65 68C65 68.550781 65.449219 69 66 69C66.550781 69 67 68.550781 67 68C67 67.449219 66.550781 67 66 67 Z M 70 67C69.449219 67 69 67.449219 69 68C69 68.550781 69.449219 69 70 69C70.550781 69 71 68.550781 71 68C71 67.449219 70.550781 67 70 67 Z M 64 70C63.449219 70 63 70.449219 63 71C63 71.550781 63.449219 72 64 72C64.550781 72 65 71.550781 65 71C65 70.449219 64.550781 70 64 70 Z M 68 70C67.449219 70 67 70.449219 67 71C67 71.550781 67.449219 72 68 72C68.550781 72 69 71.550781 69 71C69 70.449219 68.550781 70 68 70 Z M 72 70C71.449219 70 71 70.449219 71 71C71 71.550781 71.449219 72 72 72C72.550781 72 73 71.550781 73 71C73 70.449219 72.550781 70 72 70 Z M 60 76L76 76L76 78L60 78Z" fill="#E49013" />
</svg>